<?xml version="1.0" encoding="utf-8"?>
<!-- Generator: Adobe Illustrator 22.0.1, SVG Export Plug-In . SVG Version: 6.00 Build 0)  -->
<svg version="1.1" id="Ebene_1" xmlns="http://www.w3.org/2000/svg" xmlns:xlink="http://www.w3.org/1999/xlink" x="0px" y="0px"
	 viewBox="0 0 157 157" style="enable-background:new 0 0 157 157;" xml:space="preserve">
<style type="text/css">
	.st0{fill:#FFFFFF;stroke:#979797;stroke-width:3;stroke-linecap:round;stroke-linejoin:round;stroke-miterlimit:10;}
</style>
<g>
	<circle class="st0" cx="73.1" cy="79.5" r="62.1"/>
	<path class="st0" d="M73.1,57.4l4.2,22.1c0,0,24.2,2.1,54.7-18.9c0,0-6.3-15.8-12.6-20C119.4,40.6,91,55.3,73.1,57.4z"/>
	<polyline class="st0" points="76.1,73.1 85.8,70 83.7,60.6 93.1,56.3 	"/>
	<line class="st0" x1="95.3" y1="77.5" x2="93.1" y2="70"/>
	<polyline class="st0" points="102.6,75.4 100.5,70 102.6,64.8 98.4,54.2 	"/>
	<polyline class="st0" points="116.3,67.9 113.1,60.6 106.8,61.6 102.6,52.1 	"/>
	<polyline class="st0" points="127.9,61.6 120.5,52.1 113.1,52.1 109.4,45.4 	"/>
	<circle class="st0" cx="93.1" cy="69" r="3.2"/>
	
		<ellipse transform="matrix(0.9982 -6.062900e-02 6.062900e-02 0.9982 -1.63 4.2319)" class="st0" cx="68.9" cy="29" rx="11.6" ry="4.2"/>
	<path class="st0" d="M12.1,76.3c0,0,29.5,17.9,65.3,14.7c35.8-3.2,56.8-17.9,56.8-17.9l1.1,11.6c0,0-32.6,18.9-56.8,20
		c-33.7,1.5-61.1-12.6-66.3-13.7V76.3z"/>
	<path class="st0" d="M60.3,54.2l-4.1,0.2l-9.7,14.8l-0.9,4.1l6.5,8l-0.8,6.2l-4.3-3.9c0,0,6,21.3,8.1,22.3
		c2.1,0.9,29.6,21.4,32.7,21.3c3.1-0.1,10.3,0.6,10.3,0.6l1.9-4.2l-10.3-1.6l11.2-3.5l-3.2-3L150,62.9l-5.3-4.9l-53.2,55.6l-1.3-7.1
		l-4.9,5.3l-16.4-25l-3.1,0.1l-3.8,6.3c0,0-0.7-16.4,2.4-17.6l-0.4-9.2c0,0-4.3-5-4.4-7C59.4,57.4,60.3,54.2,60.3,54.2z"/>
</g>
</svg>
