<?xml version="1.0" encoding="utf-8"?>
<!-- Generator: Adobe Illustrator 22.0.1, SVG Export Plug-In . SVG Version: 6.00 Build 0)  -->
<svg version="1.1" id="Ebene_1" xmlns="http://www.w3.org/2000/svg" xmlns:xlink="http://www.w3.org/1999/xlink" x="0px" y="0px"
	 viewBox="0 0 157 157" style="enable-background:new 0 0 157 157;" xml:space="preserve">
<style type="text/css">
	.st0{fill:#FFFFFF;stroke:#979797;stroke-width:3;stroke-linecap:round;stroke-linejoin:round;stroke-miterlimit:10;}
</style>
<g>
	<path class="st0" d="M82.7,132.7c-0.7,0-1.5,0-2.2-0.2c-6-1-31.4-2-42.2-23.7c-9.8-19.5,7.6-84.6,42.3-84.6s52.2,69.1,39,88.9
		C109.1,129,93.5,132.5,82.7,132.7z"/>
	<path class="st0" d="M88,96.3c-1,0.7-10.6,9.8,0.3,18.1s22.7-6.3,22.6-13.5C110.8,93.7,99,89,88,96.3z"/>
	<path class="st0" d="M69.7,40.5c-3.7-0.6-10.8,8.7-7.6,13C65.4,57.9,79.8,42.3,69.7,40.5z"/>
	<path class="st0" d="M57.1,101.5c3,0.5,16.6-5.5,2.6-12.1c-14-6.6-12,3.4-10.5,6C50.4,97.6,54.6,101.1,57.1,101.5z"/>
	<ellipse class="st0" cx="94.1" cy="82.8" rx="4.9" ry="3.3"/>
	<path class="st0" d="M122.6,78.7c-1.9-10.9-5.7-22.2-11.1-31.8c-1.5,4.8-3,13,0.5,20.7C114.8,73.7,118.6,77,122.6,78.7z"/>
</g>
</svg>
