<?xml version="1.0" encoding="utf-8"?>
<!-- Generator: Adobe Illustrator 22.0.1, SVG Export Plug-In . SVG Version: 6.00 Build 0)  -->
<svg version="1.1" id="Ebene_1" xmlns="http://www.w3.org/2000/svg" xmlns:xlink="http://www.w3.org/1999/xlink" x="0px" y="0px"
	 viewBox="0 0 157 157" style="enable-background:new 0 0 157 157;" xml:space="preserve">
<style type="text/css">
	.st0{fill:#FFFFFF;stroke:#979797;stroke-width:3;stroke-linecap:round;stroke-linejoin:round;stroke-miterlimit:10;}
	.st1{fill:#FFFFFF;stroke:#979797;stroke-width:3;stroke-miterlimit:10;}
</style>
<g>
	<path class="st0" d="M36.5,120.4c0,0,1.4,11.1,4.8,11.5c3.3,0.4,7.6-7.6,7.4-11.8"/>
	<path class="st1" d="M104.8,126.7c-16.5,4.6-33.8,5.7-50.7,2.5c-10.4-2-21.7-5.5-30.4-11.9C2,101.4,10.3,43.6,60.6,33.5
		s87.2,33.5,85.5,56.1C144.7,107.9,131.9,119.1,104.8,126.7z"/>
	<circle class="st0" cx="41.3" cy="80.9" r="4.1"/>
	<circle class="st0" cx="75.8" cy="80.9" r="4.1"/>
	<path class="st0" d="M53.9,42.4c0,0-4.1-27.5-6.4-22.8c-2.3,4.8-6.1,15.3-6,21.2c0.1,5.9-7.6-6.9-7.5-0.9c0.1,5.9-2.2,10.7,1,12"/>
	<path class="st0" d="M81.8,41.3c0,0-4.1-27.5-6.4-22.8c-2.3,4.8-6.1,15.3-6,21.2s-7.6-6.9-7.5-0.9s-2.2,10.7,1,12"/>
	<path class="st0" d="M63.5,95.1c-0.9-1.7-1.7,1.7-6,1.6c-3.2-0.1-4.5-2.9-5.3-1.7"/>
	<path class="st0" d="M74.4,126.1c0,0,2.7,10.9,6,10.9c3.4,0,6.7-8.4,6-12.6"/>
	<path class="st0" d="M107.8,122.1c0,0,5.6,9.7,8.8,8.8c3.2-0.9,4.1-9.9,2.3-13.7"/>
	<g>
		<path class="st0" d="M99.4,66.6c0,0-9.1-6.3,0-10s9.1,5.4,9.1,6.3s2.7-8.2,9.1-3.6s2.7,10,0,10c-2.7,0,8.2,2.7,6.3,8.2
			s-6.3,5.4-9.1,3.6c-2.7-1.8,0.9,8.2-7.3,7.3s-5.4-9.1-5.4-9.1s-9.1,0.9-10-4.5C91.3,69.3,94.9,65.7,99.4,66.6z"/>
		<path class="st0" d="M104.9,67.5c0,0,0.9,3.6-0.9,5.4c-1.8,1.8,2.7-0.9,3.6,2.7s0.9-1.8,3.6-1.8c2.7,0-3.6-2.7-0.9-4.5
			S106.7,72.1,104.9,67.5z"/>
	</g>
</g>
</svg>
