<?xml version="1.0" encoding="utf-8"?>
<!-- Generator: Adobe Illustrator 22.0.1, SVG Export Plug-In . SVG Version: 6.00 Build 0)  -->
<svg version="1.1" id="Ebene_1" xmlns="http://www.w3.org/2000/svg" xmlns:xlink="http://www.w3.org/1999/xlink" x="0px" y="0px"
	 viewBox="0 0 157 157" style="enable-background:new 0 0 157 157;" xml:space="preserve">
<style type="text/css">
	.st0{fill:#FFFFFF;stroke:#979797;stroke-width:3;stroke-linecap:round;stroke-linejoin:round;stroke-miterlimit:10;}
	.st1{fill:#979797;}
	.st2{fill:#FFFFFF;}
</style>
<g>
	<path class="st0" d="M88.7,106.3c0,0,22.6,0.4,28.3-11.3c0,0,13.7-18.5-11.9-24.9l9.5-2.4l-5.2-3c0,0,8.5-4.2,16.9,5.4
		c0,0,1.1-4.8-3.1-9.3c0,0,8.3,1.8,13.3,18c0,0,1.8-4.3,1.2-7.5c0,0,4.5,9.7,3.2,17.3c0,0,2.6-7.1,3.3-10.5c0,0,7.2,13.9-8.2,23.4
		c0,0,4.7,0.4,8.3-1.6c0,0-1.5,6.2-11.8,7.5c0,0,4.3,1.8,8.1,1.1c0,0-5.4,6.3-18.1,6c0,0,2.4,2.2,9,2.3c0,0-16.6,10.4-41.2-0.9
		L88.7,106.3z"/>
	<g>
		<path class="st0" d="M26.3,115.6c-0.6,0-12.2,2.4-14,5.5c-0.6,1,0,3.7,2.4,3.7s21.9,0,21.9,0"/>
		<path class="st0" d="M15.6,124.2c0,0-0.5-2.1,2.5-3.5"/>
		<path class="st0" d="M19.9,124.3c0,0-0.7-2.1,2.4-3.5"/>
	</g>
	<g>
		<path class="st0" d="M106.1,115.6c0.6,0,12.2,2.4,14,5.5c0.6,1,0,3.7-2.4,3.7c-2.4,0-21.9,0-21.9,0"/>
		<path class="st0" d="M116.8,124.2c0,0,0.5-2.1-2.5-3.5"/>
		<path class="st0" d="M112.5,124.3c0,0,0.7-2.1-2.4-3.5"/>
	</g>
	<path class="st0" d="M44.7,37.1l-6.1-10.2c0,0,0.7-3.5,2.5-3c6.3,1.7,8.1,6.9,8.1,6.9L44.7,37.1z"/>
	<path class="st0" d="M79.7,37.1l6.1-10.2c0,0-0.7-3.5-2.5-3c-6.3,1.7-8.1,6.9-8.1,6.9L79.7,37.1z"/>
	<path class="st0" d="M52.2,28.4c-4,0-10,3.9-11.8,8.5c-3.9,9.8-16.3,68.3-17.1,72.5c-1.3,6.7,4.6,17.1,16.4,17.7
		c9.2,0.5,36.1,0.2,47.5,0.1c4.8-0.1,9.6-1.5,13.4-4.2c1.5-1.1,2.8-2.3,3.6-3.8c2.6-4.9,2.6-8.5,2-11.6c-0.3-1.2-20.8-64.5-23-70.7
		c-2-5.5-6.6-8.5-10.5-8.5C67.3,28.4,60.1,28.4,52.2,28.4z"/>
	<g>
		<circle class="st0" cx="44" cy="51" r="9.8"/>
		<circle class="st1" cx="44" cy="51.3" r="5.8"/>
		<circle class="st2" cx="46.1" cy="47.6" r="2.4"/>
	</g>
	<g>
		<circle class="st0" cx="81.1" cy="51" r="9.8"/>
		<circle class="st1" cx="81.1" cy="51.3" r="5.8"/>
		<circle class="st2" cx="83.3" cy="47.6" r="2.4"/>
	</g>
	<g>
		<g>
			<path class="st0" d="M56.8,71.7c0,0,6.1-1.2,6.7-10.4"/>
			<path class="st0" d="M70.8,71.7c0,0-6.1-1.2-6.7-10.4"/>
		</g>
		<ellipse class="st1" cx="63.5" cy="60.7" rx="5.2" ry="2.7"/>
	</g>
	<g>
		<path class="st0" d="M36.2,116.3c-1.9-1.4,4.5-1.5,0.8,12.4c0,0-4.3,0.3-4.6,4.6c0,0,1.8,2.3,5.8,2.4c6.8,0.2,6.4-3,7.9-6.3
			c1.4-3.1,4.1-8.1,5.2-15.8"/>
		<path class="st0" d="M34.6,134.7c0,0,0.2-1.8,2.6-3"/>
		<path class="st0" d="M38.1,135.5c0,0,0.3-1.7,2.9-2.8"/>
	</g>
	<g>
		<path class="st0" d="M93.8,116.3c1.9-1.4-5.8-1.5-2,12.4c0,0,4.3,0.3,4.6,4.6c0,0-1.8,2.3-5.8,2.4c-6.8,0.2-6.4-3-7.9-6.3
			c-1.4-3.1-4.1-8.1-5.2-15.8"/>
		<path class="st0" d="M94.1,134.7c0,0-0.2-1.8-2.6-3"/>
		<path class="st0" d="M90.7,135.5c0,0-0.3-1.7-2.9-2.8"/>
	</g>
</g>
</svg>
