<?xml version="1.0" encoding="utf-8"?>
<!-- Generator: Adobe Illustrator 22.0.1, SVG Export Plug-In . SVG Version: 6.00 Build 0)  -->
<svg version="1.1" id="Ebene_1" xmlns="http://www.w3.org/2000/svg" xmlns:xlink="http://www.w3.org/1999/xlink" x="0px" y="0px"
	 viewBox="0 0 157 157" style="enable-background:new 0 0 157 157;" xml:space="preserve">
<style type="text/css">
	.st0{fill:#FFFFFF;stroke:#979797;stroke-width:3;stroke-linecap:round;stroke-miterlimit:10;}
	.st1{fill:none;stroke:#979797;stroke-width:3;stroke-linecap:round;stroke-miterlimit:10;}
	.st2{fill:#979797;}
</style>
<g>
	<path class="st0" d="M89.5,12.5c2-5,10,6,10,26c0,5.1,11.4,7.2,23,8c15,1,2,18,1,20c-2.9,5.7-3,7-1,7c2,0,13.8,16.7,10.1,26.7
		c-0.1,0.2-0.2,0.4-0.3,0.6c-1.9,2.5-16.8,22.1-16.8,26.7c0,5,5,19-2,20s-11-5-11-6s1,3-7,3c-4,0-2-8-3-8c-6.8,0-17.7-6.3-21.1-8.4
		c-0.6-0.4-1.3-0.4-1.9-0.2c-5.3,1.8-10.3,3-13.9,3.7c-2.3,0.4-3.6-2.5-1.8-4c0.1-0.1,0.1-0.1,0.2-0.2c1.7-1.4,0.6-4.1-1.6-4
		c-5.9,0.4-11.4-0.3-14.1-0.7c-1.3-0.2-2.1-1.4-1.9-2.7c0.6-2.8,3.4-5.8,6.1-8c1.5-1.2,0.8-3.6-1.1-3.9c-2.4-0.4-5.4-1.2-8.9-2.7
		c-5-2.2,0.3-7.5,5.1-9c3.7-1.2-3.3-3.4-0.8-2.2c-7.1-3.4-12.3-8.6-15.3-10.8C19,81.6,25,80.3,29,80.3c1.6,0-5.4-2.5-5.9-4
		c-1.3-3.9,11.4-4,7.4-4.8c-1.3-0.3-2.3-1.7-3-2.3c-1.6-1.2-0.8-2.8,1.2-3l3.7-0.3c1.8-0.2,2.7-2.2,1.6-3.6
		c-5.1-6.5-15.7-20.7-13.4-23.8c2.3-3,18.8-0.9,26.7,0.3c1.6,0.2,3-1.3,2.5-2.9c-0.4-1.2-0.9-2.9-2.2-5.4l-6.1-14.1
		c-0.9-1.8,0.8-3.7,2.7-3.1c9,2.7,26.7,15.8,33.5,19.6c1.4,0.8,3-0.1,3.3-1.7C81.5,28.5,85.2,23.3,89.5,12.5z"/>
	<path class="st0" d="M93.5,92.5c0,0,3-10-4-14c-2.3,0-7.4,2.7-8,7C81.5,85.5,83.5,95.5,93.5,92.5z"/>
	<path class="st0" d="M124.8,86.5c0,0,1.7-10-2.3-14c0,0-3.9,0-4.5,7C118,79.5,119.1,89.5,124.8,86.5z"/>
	<path class="st1" d="M71,105c0,0,3,9,8,10"/>
	<path class="st1" d="M67.5,105.5c0,0,0,4,3,7"/>
	<path class="st1" d="M63.5,104.5c0,0,0,3,1,5"/>
	<path class="st1" d="M48.5,86.5c0,0,5,1,3,4s-6,0-6,0S43.5,87.5,48.5,86.5z"/>
	<path class="st1" d="M56.5,90.5c0,0,0,3,1,3s1-2,1-2S57.5,89.5,56.5,90.5z"/>
	<path class="st0" d="M53.5,95.5c0,0-2,1,0,2s2,0,2-1S53.5,95.5,53.5,95.5z"/>
	<path class="st0" d="M58.5,99.5c0,0-1,1,0,2s2,0,2-1S60.5,98.5,58.5,99.5z"/>
	<path class="st2" d="M89.5,78.5c0,0-0.9,0-2.1,0.3c0,0.4,0.1,0.7,0.1,0.7s-0.2,1.1-0.2,2.5c1,0.1,1.7,1,1.7,2
		c0,0.9-0.6,1.6-1.4,1.9c0.2,0.6,0.5,1.2,0.9,1.6c2,2,4.9,2.3,5.5,2.7l0,0C94.4,87,94.4,81.3,89.5,78.5z"/>
	<path class="st2" d="M122.9,73.5c0,0-0.6,0-1.4,0.3c0,0.4,0.1,0.7,0.1,0.7s-0.1,1.1-0.2,2.5c0.7,0.1,1.2,1,1.2,2
		c0,0.9-0.4,1.6-0.9,1.9c0.1,0.6,0.3,1.2,0.6,1.6c1.3,2,3.3,2.3,3.7,2.7l0,0C126.2,82,126.2,76.3,122.9,73.5z"/>
	<path class="st1" d="M124,95.2"/>
	<path class="st1" d="M98.5,92.5"/>
	<path class="st0" d="M98.5,83.5"/>
	<path class="st1" d="M82.5,27.5c-6,19-25,17-37,25c-2.7,1.8-6.3,3.6-3,6c11,8,30.1,15.1,42,13c0,0,18-4,14,21c0,0,9,7,17,7
		s9-13,9-13"/>
	<path class="st1" d="M111.5,57c0,1.4,0.9,4.5-0.5,4.5s-5.5-2.1-5.5-3.5s-0.9-5.5,0.5-5.5S111.5,55.6,111.5,57z"/>
	<path class="st1" d="M82.8,134.4"/>
	<path class="st0" d="M102.5,141.5"/>
	<path class="st0" d="M102.5,143.5"/>
	<path class="st0" d="M101.5,142.5c0,0,6-7,0-13"/>
</g>
</svg>
